<svg id="Capa_1" enable-background="new 0 0 48 48" height="24" viewBox="0 0 512 512" width="24" xmlns="http://www.w3.org/2000/svg"><g><path d="m294.533 452.027v-200.2l-38.533 38.533-86.147-86.146c-2.286-2.286-4.465-4.649-6.544-7.079h-163.309v254.893h30c0-35.145 28.592-63.737 63.737-63.737s63.737 28.592 63.737 63.737h137.059z"/><path d="m377.054 354.571v-78.719h-52.521v176.175h30c0-35.145 28.592-63.737 63.737-63.737s63.737 28.592 63.737 63.737h29.993v-80.367l-37.025-17.089z"/><path d="m437.944 275.853h-30.89v48.718h49.45z"/><circle cx="93.737" cy="452.027" r="33.737"/><circle cx="418.269" cy="452.027" r="33.737"/><circle cx="256" cy="118.069" r="24.359"/><path d="m191.066 183.001 64.934 64.934 64.934-64.934c17.345-17.344 26.896-40.404 26.896-64.934 0-50.636-41.194-91.831-91.83-91.831s-91.831 41.195-91.831 91.831c0 24.53 9.552 47.589 26.897 64.934zm10.575-64.932c0-29.974 24.386-54.359 54.359-54.359s54.359 24.386 54.359 54.359-24.385 54.36-54.359 54.36-54.359-24.386-54.359-54.36z"/></g></svg>