<svg id="Capa_1" enable-background="new 0 0 512 512" height="18" viewBox="0 0 512 512" width="18" xmlns="http://www.w3.org/2000/svg"><g><path d="m392 180.838v-180.838c-15.689 0-373.836 0-392 0v390h263.724c25.934 47.115 69.709 89.51 113.276 122 60.507-45.093 135-121.153 135-197 0-69.369-52.594-126.676-120-134.162zm-165-150.838v64.188l-60 20v-84.188zm-197 330v-330h107v125.811l120-40v-85.811h105v150.838c-67.406 7.486-120 64.793-120 134.162 0 15.267 3.039 30.371 8.162 45zm347 115.777c-26.943-22.387-105-93.097-105-160.777 0-57.897 47.103-105 105-105s105 47.103 105 105c0 67.685-78.065 138.397-105 160.777z"/><path d="m377 240c-41.355 0-75 33.645-75 75s33.645 75 75 75 75-33.645 75-75-33.645-75-75-75zm0 120c-24.813 0-45-20.187-45-45s20.187-45 45-45 45 20.187 45 45-20.187 45-45 45z"/><path d="m62 240h120v30h-120z"/><path d="m62 300h60v30h-60z"/></g></svg>