<?xml version="1.0" encoding="utf-8"?>
<!-- Generator: Adobe Illustrator 19.0.0, SVG Export Plug-In . SVG Version: 6.00 Build 0)  -->
<svg version="1.1" id="layer" xmlns="http://www.w3.org/2000/svg" xmlns:xlink="http://www.w3.org/1999/xlink" x="0px" y="0px"  width="128px" height="30px"
	 viewBox="-153 -46 652 652" style="enable-background:new -153 -46 652 652;" xml:space="preserve">
<style type="text/css">
	.st0{fill:#3395FF;}
	.st1{fill:#072654;}
</style>
<path class="st0" d="M-93.4,244.5l-5,18.4l28.5-18.5L-88.5,314l19,0L-42,211.1"/>
<path class="st1" d="M-124.1,284.7L-132,314h38.9l15.9-59.6L-124.1,284.7 M10.9,259c-0.9,3.5-2.8,6.1-5.5,7.8
	c-2.7,1.7-6.5,2.5-11.5,2.5h-15.7l5.5-20.5h15.7c4.9,0,8.3,0.8,10.1,2.5S11.8,255.5,10.9,259 M27.1,258.6c2-7.4,1.2-13.1-2.5-17.1
	c-3.6-4-10-6-19.2-6h-35l-21.1,78.6h17l8.5-31.7h11.1c2.5,0,4.5,0.4,5.9,1.2c1.4,0.8,2.3,2.2,2.5,4.3l3,26.2h18.2l-3-24.4
	c-0.6-5.4-3.1-8.6-7.5-9.6c5.6-1.6,10.3-4.3,14-8C23.1,268.3,25.8,263.7,27.1,258.6 M68.4,285.9c-1.4,5.3-3.6,9.3-6.6,12.2
	c-3,2.8-6.5,4.2-10.6,4.2c-4.2,0-7-1.4-8.5-4.1c-1.5-2.8-1.6-6.7-0.2-12c1.4-5.2,3.6-9.3,6.7-12.3c3.1-2.9,6.7-4.4,10.8-4.4
	c4.1,0,6.9,1.4,8.4,4.3C69.8,276.7,69.9,280.7,68.4,285.9L68.4,285.9z M75.9,258.1l-2.1,7.9c-0.9-2.9-2.7-5.1-5.3-6.8
	c-2.6-1.7-5.9-2.5-9.8-2.5c-4.8,0-9.4,1.2-13.8,3.7c-4.4,2.5-8.3,6-11.6,10.4c-3.3,4.5-5.7,9.6-7.3,15.3c-1.5,5.8-1.8,10.8-0.9,15.2
	c0.9,4.4,2.9,7.8,6,10.1c3.1,2.4,7.1,3.5,11.9,3.5c3.8,0,7.7-0.8,11.1-2.4c3.5-1.6,6.5-3.8,9-6.7l-2.2,8.3h16.4l15-56L75.9,258.1
	L75.9,258.1z M151.4,258.1h-47.8l-3.3,12.5h27.8l-36.8,31.8l-3.1,11.7h49.3l3.3-12.5h-29.8l37.3-32.2 M193.5,285.9
	c-1.5,5.5-3.7,9.7-6.6,12.3c-2.9,2.7-6.4,4.1-10.5,4.1c-8.6,0-11.4-5.5-8.5-16.4c1.5-5.4,3.7-9.5,6.6-12.3c2.9-2.8,6.5-4.1,10.7-4.1
	c4.1,0,6.9,1.4,8.3,4.1C195,276.3,195,280.4,193.5,285.9 M203.1,260.3c-3.8-2.4-8.6-3.5-14.5-3.5c-6,0-11.5,1.2-16.6,3.5
	c-5.1,2.3-9.5,5.8-13,10.2c-3.6,4.4-6.2,9.6-7.7,15.5c-1.6,5.9-1.7,11-0.5,15.4c1.2,4.4,3.7,7.8,7.5,10.1c3.8,2.4,8.7,3.5,14.7,3.5
	c5.9,0,11.4-1.2,16.4-3.5c5-2.4,9.3-5.7,12.9-10.2c3.6-4.4,6.1-9.6,7.7-15.5s1.8-11,0.6-15.5C209.5,265.9,207,262.5,203.1,260.3
	 M261.8,273.1l4.2-15.2c-1.4-0.7-3.3-1.1-5.6-1.1c-3.8,0-7.4,0.9-10.9,2.8c-3,1.6-5.5,3.9-7.7,6.7l2.2-8.2l-4.8,0h-11.7l-15.1,56
	h16.7l7.8-29.3c1.1-4.3,3.2-7.6,6.2-10c2.9-2.4,6.6-3.6,11.1-3.6C256.8,271.2,259.4,271.9,261.8,273.1 M308.2,286.1
	c-1.4,5.2-3.6,9.2-6.5,12c-2.9,2.8-6.5,4.1-10.6,4.1c-4.1,0-6.9-1.4-8.4-4.2c-1.5-2.8-1.6-6.8-0.1-12.1c1.4-5.3,3.6-9.4,6.6-12.2
	c3-2.8,6.6-4.3,10.7-4.3c4.1,0,6.8,1.5,8.2,4.4C309.5,276.8,309.5,280.9,308.2,286.1 M319.8,260.3c-3.1-2.5-7-3.7-11.8-3.7
	c-4.2,0-8.2,0.9-12,2.9c-3.8,1.9-6.9,4.5-9.2,7.8l0.1-0.4l2.8-8.9h-16.3l-4.1,15.5l-0.1,0.5L252,337.9h16.7l8.6-32.1
	c0.9,2.9,2.6,5.1,5.3,6.7c2.7,1.6,5.9,2.4,9.8,2.4c4.8,0,9.5-1.2,13.9-3.5c4.4-2.3,8.2-5.7,11.4-10.1s5.6-9.4,7.2-15.2
	c1.6-5.7,1.9-10.9,1-15.3C324.9,266.3,322.9,262.8,319.8,260.3 M375.1,285.9c-1.4,5.3-3.6,9.3-6.6,12.1c-2.9,2.8-6.5,4.2-10.6,4.2
	c-4.2,0-7.1-1.4-8.5-4.1c-1.5-2.8-1.6-6.7-0.2-12c1.4-5.2,3.6-9.3,6.7-12.3s6.7-4.4,10.8-4.4c4.1,0,6.9,1.4,8.4,4.2
	C376.5,276.5,376.5,280.6,375.1,285.9L375.1,285.9z M382.6,258.1l-2.1,7.9c-0.9-2.9-2.7-5.1-5.3-6.8c-2.7-1.7-5.9-2.5-9.8-2.5
	c-4.8,0-9.4,1.2-13.8,3.7c-4.4,2.5-8.3,5.9-11.6,10.4c-3.3,4.5-5.7,9.6-7.3,15.3c-1.5,5.8-1.8,10.8-0.9,15.2c0.9,4.4,2.9,7.7,6,10.1
	c3.1,2.3,7.1,3.5,11.9,3.5c3.9,0,7.6-0.8,11.1-2.4c3.4-1.6,6.5-3.9,9-6.7l-2.2,8.3H384l15-56L382.6,258.1L382.6,258.1z M468,258.1
	L468,258.1l-10.1,0c-0.3,0-0.6,0-0.9,0h-5.2l-2.7,3.7l-0.7,0.9l-0.3,0.4l-21.3,29.7l-4.4-34.7H405l8.8,52.8l-19.5,27h17.4l4.7-6.7
	c0.1-0.2,0.3-0.4,0.4-0.6l5.5-7.8l0.2-0.2l24.7-35L468,258.1L468,258.1L468,258.1L468,258.1z"/>
</svg>
